<?xml version="1.0" standalone="no"?>
<!DOCTYPE svg PUBLIC "-//W3C//DTD SVG 1.1//EN" "http://www.w3.org/Graphics/SVG/1.1/DTD/svg11.dtd" >
<!--
2013-9-30: Created.
-->
<svg>
<metadata>
Created by iconfont
</metadata>
<defs>

<font id="iconfont" horiz-adv-x="1024" >
  <font-face
    font-family="iconfont"
    font-weight="500"
    font-stretch="normal"
    units-per-em="1024"
    ascent="896"
    descent="-128"
  />
    <missing-glyph />
    
    <glyph glyph-name="main-layer" unicode="&#58881;" d="M511.573333 104.96l-314.453333 244.48L128 295.68l384-298.666667 384 298.666667-69.546667 54.186667-314.88-244.906667zM512 213.333333l314.026667 244.48L896 512l-384 298.666667-384-298.666667 69.546667-54.186667L512 213.333333z"  horiz-adv-x="1024" />

    
    <glyph glyph-name="main-plate" unicode="&#58882;" d="M810.666667 768H212.906667c-47.36 0-84.48-37.973333-84.48-85.333333L128 85.333333c0-46.933333 37.546667-85.333333 84.906667-85.333333H810.666667c46.933333 0 85.333333 38.4 85.333333 85.333333V682.666667a85.333333 85.333333 0 0 1-85.333333 85.333333z m0-512h-170.666667c0-70.826667-57.6-128-128-128s-128 57.173333-128 128H212.906667V682.666667H810.666667v-426.666667z"  horiz-adv-x="1024" />

    
    <glyph glyph-name="main-note" unicode="&#58883;" d="M256 170.666667h128l85.333333 170.666666V597.333333H213.333333v-256h128l-85.333333-170.666666z m341.333333 0h128l85.333334 170.666666V597.333333h-256v-256h128l-85.333334-170.666666z"  horiz-adv-x="1024" />

    
    <glyph glyph-name="main-line" unicode="&#58884;" d="M768 725.333333l-170.666667-170.666666h128v-298.666667c0-46.933333-38.4-85.333333-85.333333-85.333333s-85.333333 38.4-85.333333 85.333333V554.666667c0 94.293333-76.373333 170.666667-170.666667 170.666666S213.333333 648.96 213.333333 554.666667v-298.666667H85.333333l170.666667-170.666667 170.666667 170.666667H298.666667V554.666667c0 46.933333 38.4 85.333333 85.333333 85.333333s85.333333-38.4 85.333333-85.333333v-298.666667c0-94.293333 76.373333-170.666667 170.666667-170.666667s170.666667 76.373333 170.666667 170.666667V554.666667h128l-170.666667 170.666666z"  horiz-adv-x="1024" />

    
    <glyph glyph-name="main-color" unicode="&#58885;" d="M753.493333 554.666667L512 795.733333 270.506667 554.666667A342.186667 342.186667 0 0 1 170.666667 314.026667c0-85.333333 33.28-175.36 99.84-241.92a340.906667 340.906667 0 0 1 482.986666 0c66.56 66.56 99.84 156.586667 99.84 241.92S820.053333 488.106667 753.493333 554.666667zM256 298.666667c0.426667 85.333333 26.453333 139.52 75.093333 187.733333L512 671.146667l180.906667-186.88C741.546667 436.48 767.573333 384 768 298.666667H256z"  horiz-adv-x="1024" />

    
    <glyph glyph-name="main-symbol" unicode="&#58886;" d="M640 512H384v-256h256V512z m-85.333333-170.666667h-85.333334v85.333334h85.333334v-85.333334z m341.333333 85.333334V512h-85.333333V597.333333c0 46.933333-38.4 85.333333-85.333334 85.333334h-85.333333V768h-85.333333v-85.333333h-85.333334V768H384v-85.333333H298.666667c-46.933333 0-85.333333-38.4-85.333334-85.333334v-85.333333H128v-85.333333h85.333333v-85.333334H128v-85.333333h85.333333v-85.333333c0-46.933333 38.4-85.333333 85.333334-85.333334h85.333333v-85.333333h85.333333v85.333333h85.333334v-85.333333h85.333333v85.333333h85.333333c46.933333 0 85.333333 38.4 85.333334 85.333334v85.333333h85.333333v85.333333h-85.333333v85.333334h85.333333z m-170.666667-256H298.666667V597.333333h426.666666v-426.666666z"  horiz-adv-x="1024" />

    
    <glyph glyph-name="main-yuque" unicode="&#58887;" d="M384 0c0-23.466667 19.2-42.666667 42.666667-42.666667h170.666666c23.466667 0 42.666667 19.2 42.666667 42.666667v42.666667H384v-42.666667z m128 810.666667C347.306667 810.666667 213.333333 676.693333 213.333333 512c0-101.546667 50.773333-190.72 128-244.906667V170.666667c0-23.466667 19.2-42.666667 42.666667-42.666667h256c23.466667 0 42.666667 19.2 42.666667 42.666667v96.426666c77.226667 54.186667 128 143.36 128 244.906667 0 164.693333-133.973333 298.666667-298.666667 298.666667z m121.6-473.6l-36.266667-25.6V213.333333h-170.666666v98.133334l-36.266667 25.6A213.205333 213.205333 0 0 0 298.666667 512c0 117.76 95.573333 213.333333 213.333333 213.333333s213.333333-95.573333 213.333333-213.333333c0-69.546667-34.133333-134.826667-91.733333-174.933333z"  horiz-adv-x="1024" />

    
    <glyph glyph-name="line-note" unicode="&#58888;" d="M384 682.666667h256c188.501333 0 341.333333-133.717333 341.333333-298.666667s-152.832-298.666667-341.333333-298.666667H384c-188.501333 0-341.333333 133.717333-341.333333 298.666667s152.832 298.666667 341.333333 298.666667z m200.106667-384l30.805333-85.333334H682.666667l-141.781334 384h-58.197333L341.333333 213.333333h67.370667l30.293333 85.333334h145.152z m-126.378667 53.76l54.485333 163.413333 54.058667-163.413333h-108.544z"  horiz-adv-x="1024" />

    
    <glyph glyph-name="line-dash" unicode="&#58889;" d="M128 170.666667h85.333333v85.333333H128v-85.333333z m170.666667 0h85.333333v85.333333H298.666667v-85.333333z m170.666666 0h85.333334v85.333333h-85.333334v-85.333333z m170.666667 0h85.333333v85.333333h-85.333333v-85.333333z m170.666667 0h85.333333v85.333333h-85.333333v-85.333333zM128 512h768V597.333333H128v-85.333333z"  horiz-adv-x="1024" />

    
    <glyph glyph-name="line-change" unicode="&#58890;" d="M384.426667 298.666667H85.333333v-85.333334h299.093334v-128L554.666667 256l-170.24 170.666667v-128z m255.146666 42.666666v128H938.666667V554.666667h-299.093334V682.666667L469.333333 512l170.24-170.666667z"  horiz-adv-x="1024" />

    
    <glyph glyph-name="line-if" unicode="&#58891;" d="M559.36 693.76l411.392-274.261333a42.666667 42.666667 0 0 0 0-70.997334l-411.434667-274.261333a85.333333 85.333333 0 0 0-94.634666 0l-411.434667 274.261333a42.666667 42.666667 0 0 0 0 70.997334l411.434667 274.261333a85.333333 85.333333 0 0 0 94.634666 0z m24.746667-395.093333l30.805333-85.333334H682.666667l-141.781334 384h-58.197333L341.333333 213.333333h67.370667l30.293333 85.333334h145.152z m-126.378667 53.76l54.485333 163.413333 54.058667-163.413333h-108.544z"  horiz-adv-x="1024" />

    
    <glyph glyph-name="line-link" unicode="&#58892;" d="M682.666667 640l97.706666-97.706667-208.213333-208.213333-170.666667 170.666667L85.333333 188.16 145.493333 128l256 256 170.666667-170.666667 268.8 268.373334L938.666667 384V640z"  horiz-adv-x="1024" />

    
    <glyph glyph-name="layer-bottom-lite" unicode="&#58894;" d="M341.333333 212.906667h128V554.666667h85.333334v-341.76h128L512 42.666667l-170.666667 170.24zM128 725.333333h768v-85.333333H128V725.333333z"  horiz-adv-x="1024" />

    
    <glyph glyph-name="layer-sort" unicode="&#58895;" d="M896 85.333333v85.333334H128v-85.333334h768zM170.666667 512c-23.466667 0-42.666667-19.2-42.666667-42.666667v-170.666666c0-23.466667 19.2-42.666667 42.666667-42.666667h682.666666c23.466667 0 42.666667 19.2 42.666667 42.666667v170.666666c0 23.466667-19.2 42.666667-42.666667 42.666667H170.666667zM128 682.666667v-85.333334h768V682.666667H128z"  horiz-adv-x="1024" />

    
    <glyph glyph-name="layer-top-lite" unicode="&#58897;" d="M341.333333 555.093333L512 725.333333l170.666667-170.24h-128V213.333333h-85.333334V555.093333H341.333333zM128 42.666667v85.333333h768v-85.333333H128z"  horiz-adv-x="1024" />

    
    <glyph glyph-name="layer-layout" unicode="&#58896;" d="M213.333333 213.333333h128v-128h85.333334v213.333334H213.333333v-85.333334z m128 341.333334H213.333333v-85.333334h213.333334V682.666667H341.333333v-128z m256-469.333334h85.333334v128h128v85.333334h-213.333334v-213.333334z m85.333334 469.333334V682.666667h-85.333334v-213.333334h213.333334V554.666667h-128z"  horiz-adv-x="1024" />

    
    <glyph glyph-name="layer-height" unicode="&#58899;" d="M810.666667 341.333333h-85.333334v85.333334h85.333334v-85.333334z m-170.666667-341.333333h-85.333333v85.333333h85.333333v-85.333333z m170.666667 170.666667h-85.333334v85.333333h85.333334v-85.333333z m-85.333334-170.666667v85.333333h85.333334c0-42.666667-42.666667-85.333333-85.333334-85.333333z m0.384 768C772.650667 768 810.666667 729.685333 810.666667 682.752V512H213.333333V682.752C213.333333 729.856 251.306667 768 298.282667 768H725.76zM298.666667 170.666667H213.333333v85.333333h85.333334v-85.333333z m0-170.666667c-42.666667 0-85.333333 42.666667-85.333334 85.333333h85.333334v-85.333333z m0 341.333333H213.333333v85.333334h85.333334v-85.333334z m170.666666-341.333333H384v85.333333h85.333333v-85.333333z"  horiz-adv-x="1024" />

    
    <glyph glyph-name="note-list" unicode="&#58900;" d="M170.666667 448c-35.413333 0-64-28.586667-64-64s28.586667-64 64-64 64 28.586667 64 64-28.586667 64-64 64z m0 256c-35.413333 0-64-28.586667-64-64S135.253333 576 170.666667 576 234.666667 604.586667 234.666667 640 206.08 704 170.666667 704z m0-519.253333a56.746667 56.746667 0 1 1-0.042667-113.450667A56.746667 56.746667 0 0 1 170.666667 184.746667zM298.666667 85.333333h597.333333v85.333334H298.666667v-85.333334z m0 256h597.333333v85.333334H298.666667v-85.333334z m0 341.333334v-85.333334h597.333333V682.666667H298.666667z"  horiz-adv-x="1024" />

    
    <glyph glyph-name="note-point" unicode="&#58901;" d="M128 682.666667h768a85.333333 85.333333 0 0 0 85.333333-85.333334v-426.666666a85.333333 85.333333 0 0 0-85.333333-85.333334H128a85.333333 85.333333 0 0 0-85.333333 85.333334V597.333333a85.333333 85.333333 0 0 0 85.333333 85.333334z m456.106667-384l30.805333-85.333334H682.666667l-141.781334 384h-58.197333L341.333333 213.333333h67.370667l30.293333 85.333334h145.152z m-126.378667 53.76l54.485333 163.413333 54.058667-163.413333h-108.544z"  horiz-adv-x="1024" />

    
    <glyph glyph-name="note-changelog" unicode="&#58903;" d="M213.333333 149.333333c35.413333 0 64 28.586667 64 64s-28.586667 64-64 64-64-28.586667-64-64 28.586667-64 64-64zM384 341.333333c23.466667 0 42.666667 19.2 42.666667 42.666667s-19.2 42.666667-42.666667 42.666667-42.666667-19.2-42.666667-42.666667 19.2-42.666667 42.666667-42.666667z m0 170.666667c23.466667 0 42.666667 19.2 42.666667 42.666667s-19.2 42.666667-42.666667 42.666666-42.666667-19.2-42.666667-42.666666 19.2-42.666667 42.666667-42.666667zM128 0h768v85.333333H128v-85.333333zM213.333333 490.666667c35.413333 0 64 28.586667 64 64S248.746667 618.666667 213.333333 618.666667 149.333333 590.08 149.333333 554.666667 177.92 490.666667 213.333333 490.666667z m0-170.666667c35.413333 0 64 28.586667 64 64s-28.586667 64-64 64-64-28.586667-64-64 28.586667-64 64-64zM384 170.666667c23.466667 0 42.666667 19.2 42.666667 42.666666s-19.2 42.666667-42.666667 42.666667-42.666667-19.2-42.666667-42.666667 19.2-42.666667 42.666667-42.666666z m341.333333 21.333333c11.946667 0 21.333333 9.386667 21.333334 21.333333s-9.386667 21.333333-21.333334 21.333334-21.333333-9.386667-21.333333-21.333334 9.386667-21.333333 21.333333-21.333333zM128 768v-85.333333h768V768H128z m597.333333-234.666667c11.946667 0 21.333333 9.386667 21.333334 21.333334s-9.386667 21.333333-21.333334 21.333333-21.333333-9.386667-21.333333-21.333333 9.386667-21.333333 21.333333-21.333334z m0-170.666666c11.946667 0 21.333333 9.386667 21.333334 21.333333s-9.386667 21.333333-21.333334 21.333333-21.333333-9.386667-21.333333-21.333333 9.386667-21.333333 21.333333-21.333333zM554.666667 512c23.466667 0 42.666667 19.2 42.666666 42.666667s-19.2 42.666667-42.666666 42.666666-42.666667-19.2-42.666667-42.666666 19.2-42.666667 42.666667-42.666667z m0-170.666667c23.466667 0 42.666667 19.2 42.666666 42.666667s-19.2 42.666667-42.666666 42.666667-42.666667-19.2-42.666667-42.666667 19.2-42.666667 42.666667-42.666667z m0-170.666666c23.466667 0 42.666667 19.2 42.666666 42.666666s-19.2 42.666667-42.666666 42.666667-42.666667-19.2-42.666667-42.666667 19.2-42.666667 42.666667-42.666666z"  horiz-adv-x="1024" />

    
    <glyph glyph-name="note-text" unicode="&#58905;" d="M640 170.666667H128v-85.333334h512v85.333334z m0 341.333333H128v-85.333333h512V512zM128 256h768v85.333333H128v-85.333333zM128 682.666667v-85.333334h768V682.666667H128z"  horiz-adv-x="1024" />

    
    <glyph glyph-name="note-title" unicode="&#58906;" d="M247.466667 341.333333h85.333333l17.066667 85.333334h-85.333334l-17.066666-85.333334z m-17.066667-85.333333L213.333333 170.666667H128l17.066667 85.333333H85.333333v85.333333h76.8l17.066667 85.333334H128V512h68.266667L213.333333 597.333333h85.333334l-17.066667-85.333333h85.333333L384 597.333333h85.333333l-17.066666-85.333333H512v-85.333333h-76.8l-17.066667-85.333334H469.333333v-85.333333H401.066667L384 170.666667H298.666667l17.066666 85.333333h-85.333333z m574.592 11.989333h-171.989333l-37.333334-113.322666H512L681.344 640h76.970667l167.338666-485.333333h-83.626666l-37.034667 113.322666z m-149.674667 67.669334h127.701334L720.64 527.018667h-2.005333l-63.36-191.36z"  horiz-adv-x="1024" />

    
    <glyph glyph-name="note-block" unicode="&#58911;" d="M170.666667 682.666667c-46.933333 0-85.333333-38.4-85.333334-85.333334v-426.666666c0-46.933333 38.4-85.333333 85.333334-85.333334h682.666666c46.933333 0 85.333333 38.4 85.333334 85.333334V597.333333c0 46.933333-38.4 85.333333-85.333334 85.333334H170.666667z m0-170.666667h170.666666v-85.333333H170.666667V512z m426.666666-256H170.666667v85.333333h426.666666v-85.333333z m256 0h-170.666666v85.333333h170.666666v-85.333333z m0 170.666667H426.666667V512h426.666666v-85.333333z"  horiz-adv-x="1024" />

    
    <glyph glyph-name="plate-ignore" unicode="&#58902;" d="M512 597.333333c117.76 0 213.333333-95.573333 213.333333-213.333333 0-27.733333-5.546667-53.76-15.36-78.08l124.586667-124.586667c64.426667 53.76 115.2 123.306667 146.346667 202.666667-73.813333 187.306667-256 320-469.333334 320-59.733333 0-116.906667-10.666667-169.813333-29.866667l92.16-92.16C458.24 591.786667 484.266667 597.333333 512 597.333333zM85.333333 713.813333l97.28-97.28 19.626667-19.626666A503.637333 503.637333 0 0 1 42.666667 384c73.813333-187.306667 256-320 469.333333-320 66.133333 0 129.28 12.8 186.88 35.84l17.92-17.92L841.813333-42.666667 896 11.52 139.52 768 85.333333 713.813333zM321.28 477.866667l66.133333-66.133334c-2.133333-8.96-3.413333-18.346667-3.413333-27.733333 0-70.826667 57.173333-128 128-128 9.386667 0 18.773333 1.28 27.733333 3.413333l66.133334-66.133333c-28.586667-14.08-60.16-22.613333-93.866667-22.613333-117.76 0-213.333333 95.573333-213.333333 213.333333 0 33.706667 8.533333 65.28 22.613333 93.866667z m183.893333 33.28l134.4-134.4 0.853334 6.826666c0 70.826667-57.173333 128-128 128l-7.253334-0.426666z"  horiz-adv-x="1024" />

    
    <glyph glyph-name="plate-artboard" unicode="&#58904;" d="M810.666667 725.333333H213.333333a85.333333 85.333333 0 0 1-85.333333-85.333333v-512a85.333333 85.333333 0 0 1 85.333333-85.333333h597.333334c46.933333 0 85.333333 38.4 85.333333 85.333333V640a85.333333 85.333333 0 0 1-85.333333 85.333333z m0-597.333333H213.333333V554.666667h597.333334v-426.666667z"  horiz-adv-x="1024" />

    
    <glyph glyph-name="plate-export" unicode="&#58907;" d="M256 128V640h256V725.333333H256a85.333333 85.333333 0 0 1-85.333333-85.333333v-512a85.333333 85.333333 0 0 1 85.333333-85.333333h512c46.933333 0 85.333333 38.4 85.333333 85.333333v256h-85.333333v-256H256z m341.333333 512h110.506667l-291.413333-291.413333 60.16-60.16L768 579.84V469.333333h85.333333V725.333333h-256v-85.333333z"  horiz-adv-x="1024" />

    
    <glyph glyph-name="plate-title" unicode="&#58908;" d="M128 128h85.333333v-85.333333H128v85.333333z m0 170.666667h85.333333v-85.333334H128v85.333334z m85.333333 170.666666v-85.333333H128c0 46.933333 38.4 85.333333 85.333333 85.333333z m597.333334-170.666666h85.333333v-85.333334h-85.333333v85.333334zM298.666667 469.333333h85.333333v-85.333333H298.666667v85.333333z m512 0c46.933333 0 85.333333-38.4 85.333333-85.333333h-85.333333v85.333333z m0-341.333333h85.333333v-85.333333h-85.333333v85.333333z m-341.333334 341.333333h85.333334v-85.333333h-85.333334v85.333333z m170.666667 0h85.333333v-85.333333h-85.333333v85.333333zM213.333333 725.333333h597.333334a85.333333 85.333333 0 1 0 0-170.666666H213.333333a85.333333 85.333333 0 1 0 0 170.666666z"  horiz-adv-x="1024" />

    
    <glyph glyph-name="note-quoter" unicode="&#58909;" d="M170.666667 682.666667h85.333333c23.552 0 42.666667-22.272 42.666667-49.792v-497.749334C298.666667 107.605333 279.552 85.333333 256 85.333333H170.666667c-23.552 0-42.666667 22.272-42.666667 49.792V632.874667C128 660.394667 147.114667 682.666667 170.666667 682.666667z m213.333333-256h512v-85.333334H384v85.333334z m384-298.666667H384v85.333333h384v-85.333333zM384 554.666667V640h512v-85.333333H384z"  horiz-adv-x="1024" />

    
    <glyph glyph-name="note-subtitle" unicode="&#58910;" d="M85.333333 85.333333h426.666667v-85.333333H85.333333v85.333333z m292.992 241.322667H206.336L168.96 213.333333H85.333333L254.677333 698.666667h76.970667L498.986667 213.333333h-83.626667l-37.034667 113.322667zM228.693333 394.325333h127.701334L293.973333 585.685333h-2.005333l-63.36-191.36zM559.018667 213.333333V698.666667h158.976c53.546667 0 95.445333-11.093333 125.653333-33.152 30.250667-22.144 45.354667-55.168 45.354667-99.2 0-21.333333-6.058667-40.533333-18.176-57.642667-12.117333-17.109333-28.928-30.122667-50.474667-38.997333 31.104-5.12 55.04-18.56 71.808-40.32s25.173333-47.36 25.173333-76.672c0-45.568-14.890667-80.213333-44.672-103.850667-29.781333-23.68-70.869333-35.498667-123.306666-35.498667h-190.336zM640 434.005333v-155.989333h109.354667c27.989333 0 49.536 6.4 64.64 19.157333 15.104 12.8 22.656 31.274667 22.656 55.466667 0 24.490667-7.424 43.946667-22.314667 58.368-14.890667 14.421333-35.797333 22.101333-62.677333 22.997333H640z m0 60.330667h86.656c25.130667 0 44.970667 5.973333 59.52 17.834667 14.506667 11.904 21.845333 28.714667 21.845333 50.517333 0 23.978667-7.68 41.813333-23.04 53.461333-15.317333 11.690667-37.632 17.493333-66.986666 17.493334H640v-139.306667z"  horiz-adv-x="1024" />

    
    <glyph glyph-name="layer-top" unicode="&#58898;" d="M554.666667 256h298.666666c23.466667 0 42.666667-19.2 42.666667-42.666667v-170.666666c0-23.466667-19.2-42.666667-42.666667-42.666667H170.666667c-23.466667 0-42.666667 19.2-42.666667 42.666667v170.666666c0 23.466667 19.2 42.666667 42.666667 42.666667h298.666666V597.76H341.333333L512 768l170.666667-170.24h-128V256z m256-85.333333H213.333333v-85.333334h597.333334v85.333334zM128 469.333333h256v-85.333333H128v85.333333z m512 0h256v-85.333333h-256v85.333333z"  horiz-adv-x="1024" />

    
    <glyph glyph-name="layer-bottom" unicode="&#58912;" d="M554.666667 512v-341.76h128L512 0l-170.666667 170.24h128V512H170.666667c-23.466667 0-42.666667 19.2-42.666667 42.666667V725.333333c0 23.466667 19.2 42.666667 42.666667 42.666667h682.666666c23.466667 0 42.666667-19.2 42.666667-42.666667v-170.666666c0-23.466667-19.2-42.666667-42.666667-42.666667h-298.666666z m256 85.333333V682.666667H213.333333v-85.333334h597.333334zM128 298.666667v85.333333h256v-85.333333H128z m512 0v85.333333h256v-85.333333h-256z"  horiz-adv-x="1024" />

    
    <glyph glyph-name="close" unicode="&#58913;" d="M512 768c-212.352 0-384-171.648-384-384s171.648-384 384-384 384 171.648 384 384-171.648 384-384 384z m110.506667-554.666667L512 323.84 401.493333 213.333333 341.333333 273.493333 451.84 384 341.333333 494.506667 401.493333 554.666667 512 444.16 622.506667 554.666667 682.666667 494.506667 572.16 384 682.666667 273.493333 622.506667 213.333333z"  horiz-adv-x="1024" />

    
    <glyph glyph-name="setting" unicode="&#58914;" d="M512 718.72L213.333333 554.666667v-341.333334l298.666667-164.053333L810.666667 213.333333V551.381333l-298.666667 167.338667zM887.210667 597.333333v-426.666666L512-42.666667l-384 213.333334V597.333333l384 213.333334 375.210667-213.333334zM512 298.666667a85.333333 85.333333 0 1 0 0 170.666666 85.333333 85.333333 0 0 0 0-170.666666z"  horiz-adv-x="1024" />

    
    <glyph glyph-name="plate-number" unicode="&#58893;" d="M221.013333 675.712h78.72V101.97333300000003H221.056V590.2933330000001l-78.72-61.866666V613.5466670000001l78.72 62.165333z m395.434667-141.226667c0 76.544-31.829333 141.226667-115.541333 141.226667-67.669333 0-119.296-53.248-119.296-122.069333v-49.365334h79.616V549.8026669999999c0 26.794667 15.786667 42.112 39.68 42.112 40.021333 0 40.021333-34.432 40.021333-61.184 0-30.293333 0-45.653333-11.989333-72.362667L385.408 183.89333299999998v-76.16h231.082667V187.73333300000002h-143.274667l115.541333 228.864c27.733333 49.408 27.733333 64.725333 27.733334 117.930667z m224.682667-133.205333c43.733333 26.453333 47.786667 41.728 47.786666 118.272 0 68.48-7.850667 91.434667-31.744 117.930667-16.042667 15.274667-43.776 38.229333-87.893333 38.229333-63.573333 0-119.253333-53.248-119.253333-118.229333v-45.568h79.658666V557.482667c0 15.274667 11.946667 38.229333 39.68 38.229333 23.893333 0 39.978667-15.317333 39.978667-38.229333V485.12c0-42.069333-16.085333-49.706667-63.957333-49.706667h8.234666v-68.565333c51.626667 0 63.616-11.434667 63.616-53.205333v-80.298667c0-26.453333-15.786667-45.610667-39.68-45.610667-23.936 0-40.021333 15.317333-40.021333 41.770667v42.069333h-79.658667v-45.909333c0-87.637333 63.872-117.930667 115.541334-117.930667 47.829333 0 75.562667 18.773333 95.701333 49.408 15.786667 22.954667 19.84 42.026667 19.84 114.389334 0 80 0 99.114667-47.829333 129.749333z"  horiz-adv-x="1024" />

    
    <glyph glyph-name="more" unicode="&#58915;" d="M1024 42.666667v-170.666667h-170.666667z"  horiz-adv-x="1024" />

    
    <glyph glyph-name="main-word" unicode="&#58916;" d="M595.754667 224.298667L640 85.333333l-85.333333-42.666666h277.333333a21.333333 21.333333 0 0 1 21.333333 21.333333v512a21.333333 21.333333 0 0 1-21.333333 21.333333h-354.986667l38.698667-121.514666h74.453333c-0.981333 6.016-2.986667 14.506667-5.973333 25.514666a137.557333 137.557333 0 0 1-6.016 25.514667l71.978667 2.986667c2.986667-18.005333 5.546667-36.010667 7.509333-54.016h139.52v-57.002667h-54.016c-16.981333-58.965333-42.496-104.96-76.501333-137.984 36.010667-22.016 80.981333-38.485333 134.997333-49.493333a438.613333 438.613333 0 0 1-37.504-58.496c-59.008 18.005333-107.989333 39.509333-146.986667 64.512-6.784-4.394667-13.909333-8.746667-21.418666-13.056zM853.333333 682.666667c46.933333 0 85.333333-38.4 85.333334-85.333334v-554.666666c0-46.933333-38.4-85.333333-85.333334-85.333334h-341.333333l-42.666667 128H170.666667c-46.933333 0-85.333333 38.4-85.333334 85.333334V725.333333c0 46.933333 38.4 85.333333 85.333334 85.333334h256l37.546666-128H853.333333z m-236.16-362.837334a216.362667 216.362667 0 0 1 58.453334 98.986667h-116.949334c13.994667-38.997333 33.493333-71.978667 58.453334-98.986667zM469.333333 267.178667L359.168 597.162667H279.466667L170.666667 267.178667h71.68l21.248 71.978666H375.04l21.248-71.978666H469.333333z m-106.197333 128.981333H278.186667l33.194666 112.512a104.533333 104.533333 0 0 1 6.613334 29.994667h1.322666c1.792-8.96 4.010667-18.517333 6.656-28.501334l37.162667-114.005333z"  horiz-adv-x="1024" />

    
    <glyph glyph-name="layer-blender" unicode="&#58917;" d="M85.333333 384c0-119.04 69.973333-221.866667 171.093334-269.653333v-92.16C107.52 75.093333 0 217.173333 0 384s107.52 308.906667 256.426667 361.813333v-92.16A298.24 298.24 0 0 1 85.333333 384z m824.490667-128a296.234667 296.234667 0 0 1 25.813333 85.333333H344.32c4.352-30.122667 13.184-58.794667 25.813333-85.333333h539.648z m-61.013333-85.333333h-417.621334A297.685333 297.685333 0 0 1 640 85.333333a297.685333 297.685333 0 0 1 208.810667 85.333334zM370.176 512a296.234667 296.234667 0 0 1-25.813333-85.333333H935.68a296.234667 296.234667 0 0 1-25.813333 85.333333H370.176z m61.013333 85.333333h417.621334A297.685333 297.685333 0 0 1 640 682.666667a297.685333 297.685333 0 0 1-208.810667-85.333334zM640 768c211.626667 0 384-172.373333 384-384s-172.373333-384-384-384-384 172.373333-384 384 172.373333 384 384 384z"  horiz-adv-x="1024" />

    
    <glyph glyph-name="layer-looper" unicode="&#58918;" d="M445.013333 686.506667a320.128 320.128 0 0 1-281.429333 45.909333 320.128 320.128 0 0 1 45.952-281.429333 404.266667 404.266667 0 0 0 154.965333 80.512 404.266667 404.266667 0 0 0 80.512 154.965333z m62.122667 59.989333a405.461333 405.461333 0 0 0 392.192 59.392l18.048-6.826667 6.826667-18.048a405.461333 405.461333 0 0 0-59.392-392.149333 405.461333 405.461333 0 0 0 59.392-392.192l-6.826667-18.048-18.048-6.826667a405.461333 405.461333 0 0 0-392.192 59.392 405.461333 405.461333 0 0 0-392.149333-59.392l-18.090667 6.826667-6.826667 18.048a405.461333 405.461333 0 0 0 59.434667 392.192 405.461333 405.461333 0 0 0-59.392 392.149333l6.826667 18.090667 18.048 6.826667a405.461333 405.461333 0 0 0 392.149333-59.434667z m-156.288-405.973333a405.76 405.76 0 0 0 1.621333 48.341333 405.76 405.76 0 0 0-1.621333 48.341333 319.061333 319.061333 0 0 1-82.56-48.341333c25.301333-20.48 53.205333-36.650667 82.56-48.341333z m13.653333-94.293334a404.266667 404.266667 0 0 0-154.965333 80.469334 320.128 320.128 0 0 1-45.952-281.386667 320.128 320.128 0 0 1 281.429333 45.909333 404.266667 404.266667 0 0 0-80.512 155.008z m142.634667-12.032a405.76 405.76 0 0 0-48.341333-1.621333 319.061333 319.061333 0 0 1 48.341333-82.56 319.061333 319.061333 0 0 1 48.341333 82.56 405.76 405.76 0 0 0-48.341333 1.621333z m0 393.514667a319.061333 319.061333 0 0 1-48.341333-82.56 405.76 405.76 0 0 0 48.341333-1.621333 405.76 405.76 0 0 0 48.341333 1.621333 319.061333 319.061333 0 0 1-48.341333 82.56z m62.165333 58.752a404.266667 404.266667 0 0 0 80.469334-154.965333 404.266667 404.266667 0 0 0 155.008-80.512 320.128 320.128 0 0 1 45.909333 281.429333 320.128 320.128 0 0 1-281.386667-45.952z m94.122667-249.258667a405.76 405.76 0 0 0-1.621333-48.341333c1.536-16.128 2.048-32.256 1.621333-48.341333a319.061333 319.061333 0 0 1 82.56 48.341333 319.061333 319.061333 0 0 1-82.56 48.341333zM507.136 320a320.256 320.256 0 0 1 56.832 12.032c5.802667 18.688 9.813333 37.717333 12.032 56.832a320.256 320.256 0 0 1-12.032 56.832 320.256 320.256 0 0 1-56.832 12.032 320.256 320.256 0 0 1-56.832-12.032c-5.76-18.730667-9.770667-37.717333-12.032-56.832 2.261333-19.114667 6.272-38.144 12.032-56.832 18.730667-5.802667 37.717333-9.813333 56.832-12.032z m142.634667-73.813333a404.266667 404.266667 0 0 0-80.469334-154.965334 320.128 320.128 0 0 1 281.386667-45.909333 320.128 320.128 0 0 1-45.909333 281.386667 404.266667 404.266667 0 0 0-155.008-80.469334z"  horiz-adv-x="1024" />

    


  </font>
</defs>
</svg>
